<mxfile host="app.diagrams.net" modified="2020-12-24T16:35:07.083Z" agent="5.0 (Macintosh; Intel Mac OS X 10_15_6) AppleWebKit/605.1.15 (KHTML, like Gecko) Version/14.0.2 Safari/605.1.15" etag="awacs2AnYX4mn1irlFSi" version="13.9.9" type="github">
  <diagram id="gcg6w3xiNMAC09HztKAG" name="第 1 页">
    <mxGraphModel dx="1426" dy="825" grid="1" gridSize="10" guides="1" tooltips="1" connect="1" arrows="1" fold="1" page="1" pageScale="1" pageWidth="827" pageHeight="1169" math="0" shadow="0">
      <root>
        <mxCell id="0" />
        <mxCell id="1" parent="0" />
        <mxCell id="hyPgy05SgEA319AVart2-3" value="&lt;b&gt;&lt;br&gt;数字证书&lt;/b&gt;" style="rounded=0;whiteSpace=wrap;html=1;shadow=0;comic=1;sketch=0;fontFamily=Courier New;fontSize=16;align=center;horizontal=1;verticalAlign=top;fillColor=#f9f7ed;" vertex="1" parent="1">
          <mxGeometry x="350" y="180" width="322" height="390" as="geometry" />
        </mxCell>
        <mxCell id="hyPgy05SgEA319AVart2-5" value="Hash 算法" style="edgeStyle=orthogonalEdgeStyle;rounded=0;orthogonalLoop=1;jettySize=auto;html=1;entryX=0.5;entryY=0;entryDx=0;entryDy=0;strokeWidth=2;fontFamily=Courier New;fontSize=16;fontColor=#000000;" edge="1" parent="1" source="hyPgy05SgEA319AVart2-1" target="hyPgy05SgEA319AVart2-4">
          <mxGeometry x="-0.1934" relative="1" as="geometry">
            <Array as="points">
              <mxPoint x="210" y="345" />
              <mxPoint x="210" y="410" />
            </Array>
            <mxPoint as="offset" />
          </mxGeometry>
        </mxCell>
        <mxCell id="hyPgy05SgEA319AVart2-11" value="Hash 算法" style="edgeStyle=orthogonalEdgeStyle;rounded=0;orthogonalLoop=1;jettySize=auto;html=1;strokeWidth=2;fontFamily=Courier New;fontSize=16;fontColor=#000000;" edge="1" parent="1" source="hyPgy05SgEA319AVart2-1" target="hyPgy05SgEA319AVart2-7">
          <mxGeometry relative="1" as="geometry" />
        </mxCell>
        <mxCell id="hyPgy05SgEA319AVart2-1" value="&lt;div style=&quot;overflow: auto ; margin-top: 0px ; margin-bottom: 0px ; font-size: 16px&quot; class=&quot;newpage&quot;&gt;&lt;span&gt;Version&lt;/span&gt;&lt;/div&gt;&lt;div style=&quot;overflow: auto ; margin-top: 0px ; margin-bottom: 0px ; font-size: 16px&quot; class=&quot;newpage&quot;&gt;&lt;span&gt;Serial Number&lt;/span&gt;&lt;/div&gt;&lt;div style=&quot;overflow: auto ; margin-top: 0px ; margin-bottom: 0px ; font-size: 16px&quot; class=&quot;newpage&quot;&gt;&lt;span&gt;Issuer&lt;/span&gt;&lt;/div&gt;&lt;div style=&quot;overflow: auto ; margin-top: 0px ; margin-bottom: 0px ; font-size: 16px&quot; class=&quot;newpage&quot;&gt;&lt;span&gt;Validity&lt;/span&gt;&lt;/div&gt;&lt;div style=&quot;overflow: auto ; margin-top: 0px ; margin-bottom: 0px ; font-size: 16px&quot; class=&quot;newpage&quot;&gt;&lt;span&gt;Subject&lt;/span&gt;&lt;/div&gt;&lt;div style=&quot;overflow: auto ; margin-top: 0px ; margin-bottom: 0px ; font-size: 16px&quot; class=&quot;newpage&quot;&gt;&lt;span&gt;Subject Public Key Info&lt;/span&gt;&lt;/div&gt;&lt;div style=&quot;overflow: auto ; margin-top: 0px ; margin-bottom: 0px ; font-size: 16px&quot; class=&quot;newpage&quot;&gt;&lt;span&gt;Extensions&lt;/span&gt;&lt;/div&gt;&lt;div style=&quot;overflow: auto ; margin-top: 0px ; margin-bottom: 0px ; font-size: 16px&quot; class=&quot;newpage&quot;&gt;&lt;font style=&quot;font-size: 16px&quot;&gt;&lt;/font&gt;&lt;/div&gt;" style="rounded=1;whiteSpace=wrap;html=1;sketch=0;shadow=0;comic=1;fontFamily=Courier New;labelBackgroundColor=none;fillColor=#dae8fc;fontSize=16;align=center;strokeColor=none;fontStyle=0" vertex="1" parent="1">
          <mxGeometry x="378" y="250" width="266" height="190" as="geometry" />
        </mxCell>
        <mxCell id="hyPgy05SgEA319AVart2-9" value="CA 公钥解密" style="edgeStyle=orthogonalEdgeStyle;rounded=0;orthogonalLoop=1;jettySize=auto;html=1;strokeWidth=2;fontFamily=Courier New;fontSize=16;fontColor=#000000;" edge="1" parent="1" source="hyPgy05SgEA319AVart2-2" target="hyPgy05SgEA319AVart2-8">
          <mxGeometry relative="1" as="geometry" />
        </mxCell>
        <mxCell id="hyPgy05SgEA319AVart2-2" value="&lt;div style=&quot;overflow: auto ; margin-top: 0px ; margin-bottom: 0px&quot; class=&quot;newpage&quot;&gt;&lt;span&gt;Certificate Signature&lt;/span&gt;&lt;br&gt;&lt;/div&gt;&lt;div style=&quot;overflow: auto ; margin-top: 0px ; margin-bottom: 0px ; font-size: 16px&quot; class=&quot;newpage&quot;&gt;&lt;font style=&quot;font-size: 16px&quot;&gt;&lt;/font&gt;&lt;/div&gt;" style="rounded=1;whiteSpace=wrap;html=1;sketch=0;shadow=0;comic=1;fontFamily=Courier New;labelBackgroundColor=none;fillColor=#ffcc99;fontSize=16;align=center;fontStyle=0;strokeColor=none;" vertex="1" parent="1">
          <mxGeometry x="378" y="470" width="266" height="60" as="geometry" />
        </mxCell>
        <mxCell id="hyPgy05SgEA319AVart2-6" value="CA 私钥加密" style="edgeStyle=orthogonalEdgeStyle;rounded=0;orthogonalLoop=1;jettySize=auto;html=1;strokeWidth=2;fontFamily=Courier New;fontSize=16;fontColor=#000000;exitX=0.5;exitY=1;exitDx=0;exitDy=0;" edge="1" parent="1" source="hyPgy05SgEA319AVart2-4" target="hyPgy05SgEA319AVart2-2">
          <mxGeometry relative="1" as="geometry" />
        </mxCell>
        <mxCell id="hyPgy05SgEA319AVart2-4" value="Hash Value" style="rounded=1;whiteSpace=wrap;html=1;sketch=0;shadow=0;comic=1;fontFamily=Courier New;labelBackgroundColor=none;fillColor=#ffcccc;fontSize=16;align=center;fontStyle=0;strokeColor=none;" vertex="1" parent="1">
          <mxGeometry x="140" y="420" width="140" height="60" as="geometry" />
        </mxCell>
        <mxCell id="hyPgy05SgEA319AVart2-7" value="Hash Value H1" style="rounded=1;whiteSpace=wrap;html=1;sketch=0;shadow=0;comic=1;fontFamily=Courier New;labelBackgroundColor=none;fillColor=#cdeb8b;fontSize=16;align=center;fontStyle=0;strokeColor=none;" vertex="1" parent="1">
          <mxGeometry x="800" y="315" width="140" height="60" as="geometry" />
        </mxCell>
        <mxCell id="hyPgy05SgEA319AVart2-8" value="Hash Value H2" style="rounded=1;whiteSpace=wrap;html=1;sketch=0;shadow=0;comic=1;fontFamily=Courier New;labelBackgroundColor=none;fillColor=#ffcccc;fontSize=16;align=center;fontStyle=0;strokeColor=none;" vertex="1" parent="1">
          <mxGeometry x="800" y="470" width="140" height="60" as="geometry" />
        </mxCell>
        <mxCell id="hyPgy05SgEA319AVart2-12" value="" style="shape=curlyBracket;whiteSpace=wrap;html=1;rounded=1;shadow=0;comic=1;sketch=0;strokeColor=#000000;fillColor=#dae8fc;fontFamily=Courier New;fontSize=16;align=center;rotation=-180;" vertex="1" parent="1">
          <mxGeometry x="950" y="340" width="30" height="180" as="geometry" />
        </mxCell>
        <mxCell id="hyPgy05SgEA319AVart2-15" value="H1 和 H2 比较，&lt;br&gt;如果相同，则是可信赖的证书&lt;br&gt;如果不相同，则认为证书不可信" style="text;html=1;align=center;verticalAlign=middle;resizable=0;points=[];autosize=1;fontSize=16;fontFamily=Courier New;" vertex="1" parent="1">
          <mxGeometry x="980" y="410" width="240" height="60" as="geometry" />
        </mxCell>
      </root>
    </mxGraphModel>
  </diagram>
</mxfile>
